<svg width="60" height="60" viewBox="0 0 60 60" fill="none" xmlns="http://www.w3.org/2000/svg">
<g clip-path="url(#clip0_5033_78032)">
<path d="M0 16C0 7.16344 7.16344 0 16 0H44C52.8366 0 60 7.16344 60 16V44C60 52.8366 52.8366 60 44 60H16C7.16344 60 0 52.8366 0 44V16Z" fill="#5865F2"/>
<path d="M43.2301 17.9744C40.725 16.8287 38.0808 16.0157 35.3647 15.556C34.9946 16.2207 34.6594 16.9043 34.3604 17.6039C32.9157 17.3859 31.4566 17.2763 29.9955 17.2757C28.5369 17.2757 27.0711 17.3866 25.6303 17.6011C25.3361 16.9065 24.9943 16.2178 24.6234 15.5557C21.9072 16.0197 19.2628 16.8344 16.7563 17.9792C11.7783 25.3434 10.4292 32.5236 11.1037 39.6018C14.0187 41.7548 17.2811 43.3923 20.7492 44.4431C21.527 43.3932 22.2237 42.2755 22.8152 41.1123C21.6866 40.6918 20.5975 40.1721 19.5607 39.5592C19.8335 39.3614 20.1003 39.1576 20.3582 38.9595C23.3729 40.3755 26.6671 41.114 30 41.114C33.333 41.114 36.6271 40.3755 39.6421 38.9593C39.9029 39.1722 40.1698 39.3761 40.4395 39.5589C39.4006 40.173 38.3096 40.6941 37.179 41.1163C37.7726 42.2819 38.4638 43.3953 39.2452 44.4444C42.7165 43.3969 45.9815 41.7595 48.8971 39.6039L48.8962 39.6048C49.6877 31.3964 47.5441 24.2821 43.2301 17.9744ZM23.6682 35.2488C21.7886 35.2488 20.2356 33.5429 20.2356 31.4443C20.2356 29.3457 21.7345 27.6249 23.6623 27.6249C25.59 27.6249 27.1309 29.3457 27.098 31.4443C27.0649 33.5429 25.584 35.2488 23.6682 35.2488ZM36.3318 35.2488C34.449 35.2488 32.902 33.5429 32.902 31.4443C32.902 29.3457 34.401 27.6249 36.3318 27.6249C38.2624 27.6249 39.7914 29.3457 39.7584 31.4443C39.7255 33.5429 38.2474 35.2488 36.3318 35.2488Z" fill="white"/>
</g>
<defs>
<clipPath id="clip0_5033_78032">
<rect width="60" height="60" fill="white"/>
</clipPath>
</defs>
</svg>
