<svg width="60" height="60" viewBox="0 0 60 60" fill="none" xmlns="http://www.w3.org/2000/svg">
<g clip-path="url(#clip0_5033_78036)">
<path d="M0 16C0 7.16344 7.16344 0 16 0H44C52.8366 0 60 7.16344 60 16V44C60 52.8366 52.8366 60 44 60H16C7.16344 60 0 52.8366 0 44V16Z" fill="black"/>
<path d="M40.8828 17.8216C42.3846 19.37 44.2572 20.3136 46.1446 20.743V19.5803C44.3713 19.4546 42.516 18.8966 40.8828 17.8216ZM30.0349 10.1523V36.1545C30.0349 39.561 27.5866 41.7522 24.6096 41.7522C23.6221 41.7522 22.6842 41.5214 21.869 41.0949C22.9033 42.4155 24.5365 43.1751 26.3274 43.1751C29.3046 43.1751 31.7529 40.9839 31.7529 37.5743V11.5722H36.4712C36.3395 11.1052 36.2341 10.6312 36.1556 10.1523H30.0349ZM26.1638 25.2686V23.9802C25.5678 23.8809 24.9718 23.8487 24.4781 23.8487C17.7614 23.8487 12.1372 29.2391 12.1372 35.9238C12.1372 40.312 14.2729 44.0632 17.5188 46.2837C15.2576 44.0399 13.8552 40.8992 13.8552 37.3436C13.8552 30.6706 19.4618 25.2832 26.1638 25.2686Z" fill="#2DCCD3"/>
<path d="M36.8483 35.7251C36.8483 44.0283 30.4969 48.4282 24.5104 48.4282C21.919 48.4282 19.5116 47.6453 17.519 46.2838C19.757 48.5041 22.8364 49.848 26.2283 49.848C32.2147 49.848 38.5663 45.4481 38.5663 37.145V23.6152C37.9703 23.2119 37.3976 22.7415 36.8483 22.1923V35.7251ZM21.8694 41.0951C21.139 40.1718 20.7036 38.9768 20.7036 37.5744C20.7036 33.639 23.78 31.5589 27.8819 31.9912V25.4002C27.286 25.3009 26.69 25.2687 26.1933 25.2687H26.1641V30.5685C22.0622 30.1391 18.9856 32.2162 18.9856 36.1546C18.9856 38.4567 20.1631 40.2039 21.8694 41.0951ZM46.1449 20.7431V25.6661C43.419 25.6661 40.8392 25.146 38.5663 23.6152C41.2132 26.2621 44.424 27.0888 47.8628 27.0888V21.0002C47.2841 20.9615 46.7096 20.8755 46.1449 20.7431ZM40.8831 17.8216C39.431 16.3287 38.3237 14.2718 37.8738 11.5723H36.4714C37.2719 14.4909 38.9197 16.5273 40.8831 17.8216Z" fill="#F1204A"/>
<path d="M24.5101 48.4282C30.4964 48.4282 36.848 44.0282 36.848 35.7251V22.1923C37.3974 22.7415 37.9699 23.2119 38.566 23.615C40.8389 25.1461 43.4187 25.6661 46.1446 25.6661V20.7431C44.2572 20.3137 42.3844 19.37 40.8828 17.8216C38.9194 16.5273 37.2716 14.4909 36.4711 11.5723H31.7528V37.5745C31.7528 40.984 29.3044 43.1752 26.3274 43.1752C24.5364 43.1752 22.9033 42.4155 21.869 41.095C20.1628 40.204 18.9854 38.4567 18.9854 36.1546C18.9854 32.2162 22.0619 30.139 26.1638 30.5685V25.2687C19.4616 25.2833 13.855 30.6708 13.855 37.3437C13.855 40.8993 15.2574 44.0399 17.5188 46.2837C19.5113 47.6452 21.9187 48.4282 24.5101 48.4282Z" fill="white"/>
</g>
<defs>
<clipPath id="clip0_5033_78036">
<rect width="60" height="60" fill="white"/>
</clipPath>
</defs>
</svg>
