<svg width="60" height="60" viewBox="0 0 60 60" fill="none" xmlns="http://www.w3.org/2000/svg">
<g clip-path="url(#clip0_5033_78040)">
<path d="M0 16C0 7.16344 7.16344 0 16 0H44C52.8366 0 60 7.16344 60 16V44C60 52.8366 52.8366 60 44 60H16C7.16344 60 0 52.8366 0 44V16Z" fill="white"/>
<path fill-rule="evenodd" clip-rule="evenodd" d="M51.5508 21.2046C51.5508 21.2046 51.1213 18.1717 49.7993 16.84C48.1241 15.0885 46.2484 15.0773 45.3909 14.9756C39.2385 14.5273 29.9979 14.5273 29.9979 14.5273H29.9818C29.9818 14.5273 20.7454 14.5273 14.5896 14.9756C13.7287 15.0803 11.8556 15.0876 10.1812 16.84C8.85826 18.1717 8.43784 21.2046 8.43784 21.2046C8.43784 21.2046 8 24.7635 8 28.33V31.665C8 35.224 8.43758 38.7902 8.43758 38.7902C8.43758 38.7902 8.86711 41.823 10.1809 43.157C11.8553 44.9085 14.0559 44.8516 15.0382 45.0386C18.5606 45.3748 30.0009 45.4761 30.0009 45.4761C30.0009 45.4761 39.2495 45.4598 45.402 45.0198C46.2629 44.9182 48.1352 44.9079 49.8104 43.1554C51.1332 41.8237 51.5619 38.7876 51.5619 38.7876C51.5619 38.7876 52 35.2286 52 31.6624V28.3277C51.9912 24.7687 51.5533 21.2024 51.5533 21.2024L51.5509 21.2048L51.5507 21.2046H51.5508ZM25.4403 35.7109V23.3451L37.3264 29.5487L25.4403 35.7109Z" fill="#FF0000"/>
</g>
<defs>
<clipPath id="clip0_5033_78040">
<rect width="60" height="60" fill="white"/>
</clipPath>
</defs>
</svg>
